<mxfile host="Electron" modified="2023-06-03T01:25:51.130Z" agent="Mozilla/5.0 (Windows NT 10.0; Win64; x64) AppleWebKit/537.36 (KHTML, like Gecko) draw.io/21.2.8 Chrome/112.0.5615.165 Electron/24.2.0 Safari/537.36" etag="3ZhIGVRz_1N06wHgiE6n" version="21.2.8" type="device">
  <diagram name="PÃ¡gina-1" id="LWcF2ehlNvtuCrrCp_iT">
    <mxGraphModel dx="3218" dy="1206" grid="1" gridSize="10" guides="1" tooltips="1" connect="1" arrows="1" fold="1" page="1" pageScale="1" pageWidth="827" pageHeight="1169" math="0" shadow="0">
      <root>
        <mxCell id="0" />
        <mxCell id="1" parent="0" />
        <mxCell id="uYsCB8f2DViZXHIVc-Gy-1" value="usuarios" style="swimlane;whiteSpace=wrap;html=1;" vertex="1" parent="1">
          <mxGeometry x="-720" y="360" width="200" height="320" as="geometry" />
        </mxCell>
        <mxCell id="uYsCB8f2DViZXHIVc-Gy-2" value="+doc_identidad: entero" style="text;html=1;align=center;verticalAlign=middle;resizable=0;points=[];autosize=1;strokeColor=none;fillColor=none;" vertex="1" parent="uYsCB8f2DViZXHIVc-Gy-1">
          <mxGeometry x="-5" y="28" width="150" height="30" as="geometry" />
        </mxCell>
        <mxCell id="uYsCB8f2DViZXHIVc-Gy-3" value="&amp;nbsp; -nom_usuario: string" style="text;html=1;align=center;verticalAlign=middle;resizable=0;points=[];autosize=1;strokeColor=none;fillColor=none;" vertex="1" parent="uYsCB8f2DViZXHIVc-Gy-1">
          <mxGeometry x="-10" y="58" width="140" height="30" as="geometry" />
        </mxCell>
        <mxCell id="uYsCB8f2DViZXHIVc-Gy-4" value="-rol: string" style="text;html=1;align=center;verticalAlign=middle;resizable=0;points=[];autosize=1;strokeColor=none;fillColor=none;" vertex="1" parent="uYsCB8f2DViZXHIVc-Gy-1">
          <mxGeometry x="-5" y="85" width="80" height="30" as="geometry" />
        </mxCell>
        <mxCell id="uYsCB8f2DViZXHIVc-Gy-5" value="-atribute2" style="text;html=1;align=center;verticalAlign=middle;resizable=0;points=[];autosize=1;strokeColor=none;fillColor=none;" vertex="1" parent="uYsCB8f2DViZXHIVc-Gy-1">
          <mxGeometry y="108" width="70" height="30" as="geometry" />
        </mxCell>
        <mxCell id="uYsCB8f2DViZXHIVc-Gy-6" value="-atribute3" style="text;html=1;align=center;verticalAlign=middle;resizable=0;points=[];autosize=1;strokeColor=none;fillColor=none;" vertex="1" parent="uYsCB8f2DViZXHIVc-Gy-1">
          <mxGeometry y="138" width="70" height="30" as="geometry" />
        </mxCell>
        <mxCell id="uYsCB8f2DViZXHIVc-Gy-8" value="+registrar_ususario()" style="text;html=1;align=center;verticalAlign=middle;resizable=0;points=[];autosize=1;strokeColor=none;fillColor=none;" vertex="1" parent="uYsCB8f2DViZXHIVc-Gy-1">
          <mxGeometry y="168" width="130" height="30" as="geometry" />
        </mxCell>
        <mxCell id="uYsCB8f2DViZXHIVc-Gy-10" value="+asignar_rol()" style="text;html=1;align=center;verticalAlign=middle;resizable=0;points=[];autosize=1;strokeColor=none;fillColor=none;" vertex="1" parent="uYsCB8f2DViZXHIVc-Gy-1">
          <mxGeometry x="-5" y="195" width="100" height="30" as="geometry" />
        </mxCell>
        <mxCell id="uYsCB8f2DViZXHIVc-Gy-11" value="+eliminar_usuario()" style="text;html=1;align=center;verticalAlign=middle;resizable=0;points=[];autosize=1;strokeColor=none;fillColor=none;" vertex="1" parent="uYsCB8f2DViZXHIVc-Gy-1">
          <mxGeometry x="-5" y="225" width="130" height="30" as="geometry" />
        </mxCell>
        <mxCell id="uYsCB8f2DViZXHIVc-Gy-12" value="+ver_cuenta_usuario()" style="text;html=1;align=center;verticalAlign=middle;resizable=0;points=[];autosize=1;strokeColor=none;fillColor=none;" vertex="1" parent="uYsCB8f2DViZXHIVc-Gy-1">
          <mxGeometry y="255" width="140" height="30" as="geometry" />
        </mxCell>
        <mxCell id="uYsCB8f2DViZXHIVc-Gy-13" value="+modificar_usuario()" style="text;html=1;align=center;verticalAlign=middle;resizable=0;points=[];autosize=1;strokeColor=none;fillColor=none;" vertex="1" parent="uYsCB8f2DViZXHIVc-Gy-1">
          <mxGeometry y="285" width="130" height="30" as="geometry" />
        </mxCell>
        <mxCell id="uYsCB8f2DViZXHIVc-Gy-7" value="" style="endArrow=none;html=1;rounded=0;" edge="1" parent="1">
          <mxGeometry width="50" height="50" relative="1" as="geometry">
            <mxPoint x="-720" y="520" as="sourcePoint" />
            <mxPoint x="-520" y="520" as="targetPoint" />
          </mxGeometry>
        </mxCell>
        <mxCell id="uYsCB8f2DViZXHIVc-Gy-14" value="productos" style="swimlane;whiteSpace=wrap;html=1;" vertex="1" parent="1">
          <mxGeometry x="-320" y="120" width="200" height="280" as="geometry" />
        </mxCell>
        <mxCell id="uYsCB8f2DViZXHIVc-Gy-15" value="+idproducto: entero" style="text;html=1;align=center;verticalAlign=middle;resizable=0;points=[];autosize=1;strokeColor=none;fillColor=none;" vertex="1" parent="uYsCB8f2DViZXHIVc-Gy-14">
          <mxGeometry y="28" width="130" height="30" as="geometry" />
        </mxCell>
        <mxCell id="uYsCB8f2DViZXHIVc-Gy-16" value="-nombre_pro: string" style="text;html=1;align=center;verticalAlign=middle;resizable=0;points=[];autosize=1;strokeColor=none;fillColor=none;" vertex="1" parent="uYsCB8f2DViZXHIVc-Gy-14">
          <mxGeometry y="58" width="130" height="30" as="geometry" />
        </mxCell>
        <mxCell id="uYsCB8f2DViZXHIVc-Gy-17" value="-precio_pro: entero" style="text;html=1;align=center;verticalAlign=middle;resizable=0;points=[];autosize=1;strokeColor=none;fillColor=none;" vertex="1" parent="uYsCB8f2DViZXHIVc-Gy-14">
          <mxGeometry x="5" y="85" width="120" height="30" as="geometry" />
        </mxCell>
        <mxCell id="uYsCB8f2DViZXHIVc-Gy-19" value="+registrar_producto()" style="text;html=1;align=center;verticalAlign=middle;resizable=0;points=[];autosize=1;strokeColor=none;fillColor=none;" vertex="1" parent="uYsCB8f2DViZXHIVc-Gy-14">
          <mxGeometry x="-5" y="120" width="140" height="30" as="geometry" />
        </mxCell>
        <mxCell id="uYsCB8f2DViZXHIVc-Gy-20" value="+editar_productos()" style="text;html=1;align=center;verticalAlign=middle;resizable=0;points=[];autosize=1;strokeColor=none;fillColor=none;" vertex="1" parent="uYsCB8f2DViZXHIVc-Gy-14">
          <mxGeometry x="-5" y="148" width="130" height="30" as="geometry" />
        </mxCell>
        <mxCell id="uYsCB8f2DViZXHIVc-Gy-21" value="+consultar_productos()" style="text;html=1;align=center;verticalAlign=middle;resizable=0;points=[];autosize=1;strokeColor=none;fillColor=none;" vertex="1" parent="uYsCB8f2DViZXHIVc-Gy-14">
          <mxGeometry x="-5" y="178" width="150" height="30" as="geometry" />
        </mxCell>
        <mxCell id="uYsCB8f2DViZXHIVc-Gy-22" value="+eliminar_producto()" style="text;html=1;align=center;verticalAlign=middle;resizable=0;points=[];autosize=1;strokeColor=none;fillColor=none;" vertex="1" parent="uYsCB8f2DViZXHIVc-Gy-14">
          <mxGeometry y="208" width="130" height="30" as="geometry" />
        </mxCell>
        <mxCell id="uYsCB8f2DViZXHIVc-Gy-18" value="" style="endArrow=none;html=1;rounded=0;" edge="1" parent="1">
          <mxGeometry width="50" height="50" relative="1" as="geometry">
            <mxPoint x="-320" y="240" as="sourcePoint" />
            <mxPoint x="-120" y="240" as="targetPoint" />
          </mxGeometry>
        </mxCell>
        <mxCell id="uYsCB8f2DViZXHIVc-Gy-23" value="" style="endArrow=none;html=1;rounded=0;entryX=0;entryY=0;entryDx=0;entryDy=0;exitX=0.5;exitY=0;exitDx=0;exitDy=0;" edge="1" parent="1" source="uYsCB8f2DViZXHIVc-Gy-1" target="uYsCB8f2DViZXHIVc-Gy-14">
          <mxGeometry width="50" height="50" relative="1" as="geometry">
            <mxPoint x="-640" y="280" as="sourcePoint" />
            <mxPoint x="-590" y="230" as="targetPoint" />
            <Array as="points">
              <mxPoint x="-620" y="120" />
            </Array>
          </mxGeometry>
        </mxCell>
        <mxCell id="uYsCB8f2DViZXHIVc-Gy-24" value="categorias" style="swimlane;whiteSpace=wrap;html=1;" vertex="1" parent="1">
          <mxGeometry x="-320" y="520" width="200" height="200" as="geometry" />
        </mxCell>
        <mxCell id="uYsCB8f2DViZXHIVc-Gy-27" value="+categoria: entero" style="text;html=1;align=center;verticalAlign=middle;resizable=0;points=[];autosize=1;strokeColor=none;fillColor=none;" vertex="1" parent="uYsCB8f2DViZXHIVc-Gy-24">
          <mxGeometry y="30" width="120" height="30" as="geometry" />
        </mxCell>
        <mxCell id="uYsCB8f2DViZXHIVc-Gy-28" value="-nombre_cat: string" style="text;html=1;align=center;verticalAlign=middle;resizable=0;points=[];autosize=1;strokeColor=none;fillColor=none;" vertex="1" parent="uYsCB8f2DViZXHIVc-Gy-24">
          <mxGeometry x="-5" y="50" width="130" height="30" as="geometry" />
        </mxCell>
        <mxCell id="uYsCB8f2DViZXHIVc-Gy-30" value="+buscar_productos()" style="text;html=1;align=center;verticalAlign=middle;resizable=0;points=[];autosize=1;strokeColor=none;fillColor=none;" vertex="1" parent="uYsCB8f2DViZXHIVc-Gy-24">
          <mxGeometry y="85" width="130" height="30" as="geometry" />
        </mxCell>
        <mxCell id="uYsCB8f2DViZXHIVc-Gy-32" value="+registrar_categoria()" style="text;html=1;align=center;verticalAlign=middle;resizable=0;points=[];autosize=1;strokeColor=none;fillColor=none;" vertex="1" parent="uYsCB8f2DViZXHIVc-Gy-24">
          <mxGeometry y="115" width="140" height="30" as="geometry" />
        </mxCell>
        <mxCell id="uYsCB8f2DViZXHIVc-Gy-33" value="+editar_categoria" style="text;html=1;align=center;verticalAlign=middle;resizable=0;points=[];autosize=1;strokeColor=none;fillColor=none;" vertex="1" parent="uYsCB8f2DViZXHIVc-Gy-24">
          <mxGeometry y="145" width="120" height="30" as="geometry" />
        </mxCell>
        <mxCell id="uYsCB8f2DViZXHIVc-Gy-34" value="+eliminar_categoria()" style="text;html=1;align=center;verticalAlign=middle;resizable=0;points=[];autosize=1;strokeColor=none;fillColor=none;" vertex="1" parent="uYsCB8f2DViZXHIVc-Gy-24">
          <mxGeometry y="170" width="140" height="30" as="geometry" />
        </mxCell>
        <mxCell id="uYsCB8f2DViZXHIVc-Gy-25" value="" style="rhombus;whiteSpace=wrap;html=1;" vertex="1" parent="1">
          <mxGeometry x="-237.5" y="460" width="35" height="60" as="geometry" />
        </mxCell>
        <mxCell id="uYsCB8f2DViZXHIVc-Gy-26" value="" style="endArrow=none;html=1;rounded=0;entryX=0.5;entryY=1;entryDx=0;entryDy=0;exitX=0.5;exitY=0;exitDx=0;exitDy=0;" edge="1" parent="1" source="uYsCB8f2DViZXHIVc-Gy-25" target="uYsCB8f2DViZXHIVc-Gy-14">
          <mxGeometry width="50" height="50" relative="1" as="geometry">
            <mxPoint x="-480" y="450" as="sourcePoint" />
            <mxPoint x="-430" y="400" as="targetPoint" />
          </mxGeometry>
        </mxCell>
        <mxCell id="uYsCB8f2DViZXHIVc-Gy-29" value="" style="endArrow=none;html=1;rounded=0;exitX=0.038;exitY=1.033;exitDx=0;exitDy=0;exitPerimeter=0;" edge="1" parent="1" source="uYsCB8f2DViZXHIVc-Gy-28">
          <mxGeometry width="50" height="50" relative="1" as="geometry">
            <mxPoint x="-300" y="600" as="sourcePoint" />
            <mxPoint x="-120" y="600" as="targetPoint" />
          </mxGeometry>
        </mxCell>
        <mxCell id="uYsCB8f2DViZXHIVc-Gy-35" value="mat_pri" style="swimlane;whiteSpace=wrap;html=1;" vertex="1" parent="1">
          <mxGeometry x="120" y="120" width="200" height="280" as="geometry" />
        </mxCell>
        <mxCell id="uYsCB8f2DViZXHIVc-Gy-37" value="-nom_proveedor: string" style="text;html=1;align=center;verticalAlign=middle;resizable=0;points=[];autosize=1;strokeColor=none;fillColor=none;" vertex="1" parent="uYsCB8f2DViZXHIVc-Gy-35">
          <mxGeometry y="58" width="150" height="30" as="geometry" />
        </mxCell>
        <mxCell id="uYsCB8f2DViZXHIVc-Gy-36" value="+cod_materia_pri: entero" style="text;html=1;align=center;verticalAlign=middle;resizable=0;points=[];autosize=1;strokeColor=none;fillColor=none;" vertex="1" parent="uYsCB8f2DViZXHIVc-Gy-35">
          <mxGeometry y="28" width="160" height="30" as="geometry" />
        </mxCell>
        <mxCell id="uYsCB8f2DViZXHIVc-Gy-38" value="-unidad_mat_prima: string" style="text;html=1;align=center;verticalAlign=middle;resizable=0;points=[];autosize=1;strokeColor=none;fillColor=none;" vertex="1" parent="uYsCB8f2DViZXHIVc-Gy-35">
          <mxGeometry y="88" width="160" height="30" as="geometry" />
        </mxCell>
        <mxCell id="uYsCB8f2DViZXHIVc-Gy-39" value="-precio: entero" style="text;html=1;align=center;verticalAlign=middle;resizable=0;points=[];autosize=1;strokeColor=none;fillColor=none;" vertex="1" parent="uYsCB8f2DViZXHIVc-Gy-35">
          <mxGeometry y="118" width="100" height="30" as="geometry" />
        </mxCell>
        <mxCell id="uYsCB8f2DViZXHIVc-Gy-41" value="+modificar_mat_pri()" style="text;html=1;align=center;verticalAlign=middle;resizable=0;points=[];autosize=1;strokeColor=none;fillColor=none;" vertex="1" parent="uYsCB8f2DViZXHIVc-Gy-35">
          <mxGeometry y="158" width="130" height="30" as="geometry" />
        </mxCell>
        <mxCell id="uYsCB8f2DViZXHIVc-Gy-43" value="+ver_mat_pri()" style="text;html=1;align=center;verticalAlign=middle;resizable=0;points=[];autosize=1;strokeColor=none;fillColor=none;" vertex="1" parent="uYsCB8f2DViZXHIVc-Gy-35">
          <mxGeometry y="218" width="100" height="30" as="geometry" />
        </mxCell>
        <mxCell id="uYsCB8f2DViZXHIVc-Gy-46" value="+buscar_mat_pri()" style="text;html=1;align=center;verticalAlign=middle;resizable=0;points=[];autosize=1;strokeColor=none;fillColor=none;" vertex="1" parent="uYsCB8f2DViZXHIVc-Gy-35">
          <mxGeometry y="248" width="120" height="30" as="geometry" />
        </mxCell>
        <mxCell id="uYsCB8f2DViZXHIVc-Gy-40" value="" style="endArrow=none;html=1;rounded=0;" edge="1" parent="1">
          <mxGeometry width="50" height="50" relative="1" as="geometry">
            <mxPoint x="120" y="280" as="sourcePoint" />
            <mxPoint x="320" y="280" as="targetPoint" />
          </mxGeometry>
        </mxCell>
        <mxCell id="uYsCB8f2DViZXHIVc-Gy-42" value="+eliminar_mat_pri()" style="text;html=1;align=center;verticalAlign=middle;resizable=0;points=[];autosize=1;strokeColor=none;fillColor=none;" vertex="1" parent="1">
          <mxGeometry x="115" y="308" width="130" height="30" as="geometry" />
        </mxCell>
        <mxCell id="uYsCB8f2DViZXHIVc-Gy-47" value="" style="endArrow=none;html=1;rounded=0;entryX=0;entryY=0;entryDx=0;entryDy=0;exitX=1;exitY=0;exitDx=0;exitDy=0;" edge="1" parent="1" source="uYsCB8f2DViZXHIVc-Gy-1" target="uYsCB8f2DViZXHIVc-Gy-24">
          <mxGeometry width="50" height="50" relative="1" as="geometry">
            <mxPoint x="-520" y="450" as="sourcePoint" />
            <mxPoint x="-470" y="400" as="targetPoint" />
          </mxGeometry>
        </mxCell>
        <mxCell id="uYsCB8f2DViZXHIVc-Gy-48" value="" style="endArrow=none;dashed=1;html=1;rounded=0;entryX=-0.006;entryY=0.4;entryDx=0;entryDy=0;entryPerimeter=0;" edge="1" parent="1" target="uYsCB8f2DViZXHIVc-Gy-36">
          <mxGeometry width="50" height="50" relative="1" as="geometry">
            <mxPoint x="-120" y="160" as="sourcePoint" />
            <mxPoint x="-10" y="400" as="targetPoint" />
          </mxGeometry>
        </mxCell>
        <mxCell id="uYsCB8f2DViZXHIVc-Gy-49" value="carrito" style="swimlane;whiteSpace=wrap;html=1;" vertex="1" parent="1">
          <mxGeometry y="640" width="200" height="200" as="geometry" />
        </mxCell>
        <mxCell id="uYsCB8f2DViZXHIVc-Gy-50" value="-forma_pago: string" style="text;html=1;align=center;verticalAlign=middle;resizable=0;points=[];autosize=1;strokeColor=none;fillColor=none;" vertex="1" parent="uYsCB8f2DViZXHIVc-Gy-49">
          <mxGeometry y="25" width="130" height="30" as="geometry" />
        </mxCell>
        <mxCell id="uYsCB8f2DViZXHIVc-Gy-51" value="-id_carrito: entero" style="text;html=1;align=center;verticalAlign=middle;resizable=0;points=[];autosize=1;strokeColor=none;fillColor=none;" vertex="1" parent="uYsCB8f2DViZXHIVc-Gy-49">
          <mxGeometry y="55" width="120" height="30" as="geometry" />
        </mxCell>
        <mxCell id="uYsCB8f2DViZXHIVc-Gy-53" value="-realizar_compra()" style="text;html=1;align=center;verticalAlign=middle;resizable=0;points=[];autosize=1;strokeColor=none;fillColor=none;" vertex="1" parent="uYsCB8f2DViZXHIVc-Gy-49">
          <mxGeometry y="80" width="120" height="30" as="geometry" />
        </mxCell>
        <mxCell id="uYsCB8f2DViZXHIVc-Gy-54" value="-editar_compra()" style="text;html=1;align=center;verticalAlign=middle;resizable=0;points=[];autosize=1;strokeColor=none;fillColor=none;" vertex="1" parent="uYsCB8f2DViZXHIVc-Gy-49">
          <mxGeometry y="110" width="110" height="30" as="geometry" />
        </mxCell>
        <mxCell id="uYsCB8f2DViZXHIVc-Gy-55" value="-visualizar_compra()" style="text;html=1;align=center;verticalAlign=middle;resizable=0;points=[];autosize=1;strokeColor=none;fillColor=none;" vertex="1" parent="uYsCB8f2DViZXHIVc-Gy-49">
          <mxGeometry y="138" width="130" height="30" as="geometry" />
        </mxCell>
        <mxCell id="uYsCB8f2DViZXHIVc-Gy-52" value="" style="endArrow=none;html=1;rounded=0;exitX=0;exitY=0.833;exitDx=0;exitDy=0;exitPerimeter=0;" edge="1" parent="1" source="uYsCB8f2DViZXHIVc-Gy-51">
          <mxGeometry width="50" height="50" relative="1" as="geometry">
            <mxPoint x="-60" y="650" as="sourcePoint" />
            <mxPoint x="200" y="720" as="targetPoint" />
          </mxGeometry>
        </mxCell>
        <mxCell id="uYsCB8f2DViZXHIVc-Gy-56" value="" style="endArrow=none;html=1;rounded=0;entryX=0.5;entryY=0;entryDx=0;entryDy=0;" edge="1" parent="1" target="uYsCB8f2DViZXHIVc-Gy-49">
          <mxGeometry width="50" height="50" relative="1" as="geometry">
            <mxPoint x="-120" y="320" as="sourcePoint" />
            <mxPoint x="-10" y="500" as="targetPoint" />
          </mxGeometry>
        </mxCell>
        <mxCell id="uYsCB8f2DViZXHIVc-Gy-57" value="com_venta" style="swimlane;whiteSpace=wrap;html=1;" vertex="1" parent="1">
          <mxGeometry y="920" width="200" height="200" as="geometry" />
        </mxCell>
        <mxCell id="uYsCB8f2DViZXHIVc-Gy-58" value="-id_venta: entero" style="text;html=1;align=center;verticalAlign=middle;resizable=0;points=[];autosize=1;strokeColor=none;fillColor=none;" vertex="1" parent="uYsCB8f2DViZXHIVc-Gy-57">
          <mxGeometry y="20" width="110" height="30" as="geometry" />
        </mxCell>
        <mxCell id="uYsCB8f2DViZXHIVc-Gy-59" value="-fecha_venta: date" style="text;html=1;align=center;verticalAlign=middle;resizable=0;points=[];autosize=1;strokeColor=none;fillColor=none;" vertex="1" parent="uYsCB8f2DViZXHIVc-Gy-57">
          <mxGeometry y="50" width="120" height="30" as="geometry" />
        </mxCell>
        <mxCell id="uYsCB8f2DViZXHIVc-Gy-61" value="+detallar_ventas()" style="text;html=1;align=center;verticalAlign=middle;resizable=0;points=[];autosize=1;strokeColor=none;fillColor=none;" vertex="1" parent="uYsCB8f2DViZXHIVc-Gy-57">
          <mxGeometry y="80" width="120" height="30" as="geometry" />
        </mxCell>
        <mxCell id="uYsCB8f2DViZXHIVc-Gy-62" value="+buscar_venta()" style="text;html=1;align=center;verticalAlign=middle;resizable=0;points=[];autosize=1;strokeColor=none;fillColor=none;" vertex="1" parent="uYsCB8f2DViZXHIVc-Gy-57">
          <mxGeometry y="108" width="110" height="30" as="geometry" />
        </mxCell>
        <mxCell id="uYsCB8f2DViZXHIVc-Gy-60" value="" style="endArrow=none;html=1;rounded=0;exitX=0.017;exitY=1;exitDx=0;exitDy=0;exitPerimeter=0;" edge="1" parent="1" source="uYsCB8f2DViZXHIVc-Gy-59">
          <mxGeometry width="50" height="50" relative="1" as="geometry">
            <mxPoint x="-60" y="950" as="sourcePoint" />
            <mxPoint x="200" y="1000" as="targetPoint" />
          </mxGeometry>
        </mxCell>
        <mxCell id="uYsCB8f2DViZXHIVc-Gy-63" value="" style="endArrow=none;html=1;rounded=0;entryX=0.5;entryY=1;entryDx=0;entryDy=0;exitX=0.5;exitY=0;exitDx=0;exitDy=0;" edge="1" parent="1" source="uYsCB8f2DViZXHIVc-Gy-57" target="uYsCB8f2DViZXHIVc-Gy-49">
          <mxGeometry width="50" height="50" relative="1" as="geometry">
            <mxPoint x="-60" y="850" as="sourcePoint" />
            <mxPoint x="-10" y="800" as="targetPoint" />
          </mxGeometry>
        </mxCell>
        <mxCell id="uYsCB8f2DViZXHIVc-Gy-64" value="prove" style="swimlane;whiteSpace=wrap;html=1;" vertex="1" parent="1">
          <mxGeometry x="520" y="120" width="200" height="280" as="geometry" />
        </mxCell>
        <mxCell id="uYsCB8f2DViZXHIVc-Gy-65" value="+id_proveedor: entero" style="text;html=1;align=center;verticalAlign=middle;resizable=0;points=[];autosize=1;strokeColor=none;fillColor=none;" vertex="1" parent="uYsCB8f2DViZXHIVc-Gy-64">
          <mxGeometry y="20" width="140" height="30" as="geometry" />
        </mxCell>
        <mxCell id="uYsCB8f2DViZXHIVc-Gy-66" value="-nom_proveeedor: string" style="text;html=1;align=center;verticalAlign=middle;resizable=0;points=[];autosize=1;strokeColor=none;fillColor=none;" vertex="1" parent="uYsCB8f2DViZXHIVc-Gy-64">
          <mxGeometry y="50" width="150" height="30" as="geometry" />
        </mxCell>
        <mxCell id="uYsCB8f2DViZXHIVc-Gy-67" value="-telefono_proveedor: string" style="text;html=1;align=center;verticalAlign=middle;resizable=0;points=[];autosize=1;strokeColor=none;fillColor=none;" vertex="1" parent="uYsCB8f2DViZXHIVc-Gy-64">
          <mxGeometry y="80" width="170" height="30" as="geometry" />
        </mxCell>
        <mxCell id="uYsCB8f2DViZXHIVc-Gy-68" value="-direccion_proveedor: string" style="text;html=1;align=center;verticalAlign=middle;resizable=0;points=[];autosize=1;strokeColor=none;fillColor=none;" vertex="1" parent="uYsCB8f2DViZXHIVc-Gy-64">
          <mxGeometry y="110" width="170" height="30" as="geometry" />
        </mxCell>
        <mxCell id="uYsCB8f2DViZXHIVc-Gy-70" value="+modificar_proveedores()" style="text;html=1;align=center;verticalAlign=middle;resizable=0;points=[];autosize=1;strokeColor=none;fillColor=none;" vertex="1" parent="uYsCB8f2DViZXHIVc-Gy-64">
          <mxGeometry y="160" width="160" height="30" as="geometry" />
        </mxCell>
        <mxCell id="uYsCB8f2DViZXHIVc-Gy-71" value="+agregar_proveedores()" style="text;html=1;align=center;verticalAlign=middle;resizable=0;points=[];autosize=1;strokeColor=none;fillColor=none;" vertex="1" parent="uYsCB8f2DViZXHIVc-Gy-64">
          <mxGeometry y="190" width="150" height="30" as="geometry" />
        </mxCell>
        <mxCell id="uYsCB8f2DViZXHIVc-Gy-72" value="+operation()" style="text;html=1;align=center;verticalAlign=middle;resizable=0;points=[];autosize=1;strokeColor=none;fillColor=none;" vertex="1" parent="uYsCB8f2DViZXHIVc-Gy-64">
          <mxGeometry y="220" width="90" height="30" as="geometry" />
        </mxCell>
        <mxCell id="uYsCB8f2DViZXHIVc-Gy-69" value="" style="endArrow=none;html=1;rounded=0;" edge="1" parent="1">
          <mxGeometry width="50" height="50" relative="1" as="geometry">
            <mxPoint x="520" y="280" as="sourcePoint" />
            <mxPoint x="720" y="280" as="targetPoint" />
          </mxGeometry>
        </mxCell>
        <mxCell id="uYsCB8f2DViZXHIVc-Gy-73" value="" style="endArrow=none;dashed=1;html=1;rounded=0;" edge="1" parent="1">
          <mxGeometry width="50" height="50" relative="1" as="geometry">
            <mxPoint x="320" y="160" as="sourcePoint" />
            <mxPoint x="520" y="160" as="targetPoint" />
          </mxGeometry>
        </mxCell>
      </root>
    </mxGraphModel>
  </diagram>
</mxfile>
